<?xml version="1.0" encoding="UTF-8"?>
<!-- Generated by Pixelmator Pro 3.1.1 -->
<svg width="800" height="800" viewBox="0 0 800 800" xmlns="http://www.w3.org/2000/svg" xmlns:xlink="http://www.w3.org/1999/xlink">
    <path id="Path" fill="#ffffff" stroke="none" d="M 416.40625 70.921875 C 385.3125 70.921875 354.21875 73.28125 323.125 77.96875 C 276.875 118.71875 252.187485 189.375 252.187485 258.28125 C 252.187485 289.84375 257.34375 320.46875 267.1875 347.34375 C 277.34375 346.875 287.34375 346.5625 297.5 346.5625 C 326.40625 345.3125 346.25 346.5625 370.3125 350.625 C 360.78125 321.875 356.09375 290.15625 356.09375 258.28125 C 356.09375 190 377.34375 119.0625 421.875 71.046875 L 416.40625 71.046875 Z M 461.5625 72.703125 C 411.09375 112.421875 384.21875 186.25 384.21875 258.28125 C 384.21875 292.96875 390.3125 326.40625 402.1875 355 C 420.9375 357.96875 439.531219 361.71875 458.281219 366.25 C 467.34375 366.5625 476.249969 368.4375 484.687531 371.5625 C 465.937531 338.4375 455.000031 295.46875 455.000031 248.4375 C 455.000031 198.75 467.1875 153.484375 487.968719 119.71875 C 497.65625 103.859375 509.687531 90.328125 523.28125 80.453125 C 502.656281 76.859375 482.1875 74.25 461.5625 72.703125 Z M 276.71875 86.6875 C 271.71875 87.84375 266.5625 89.046875 261.40625 90.328125 L 260.78125 90.484375 L 260.3125 90.640625 C 151.234375 108.8125 125.968758 271.40625 184.53125 356.40625 C 202.34375 353.28125 220.156235 350.9375 237.96875 349.21875 C 228.749985 320.9375 224.062485 289.6875 224.062485 258.28125 C 224.062485 197.03125 241.09375 133.75 276.71875 86.6875 Z M 574.6875 90.921875 C 551.71875 90.921875 529.375 106.140625 512.03125 134.46875 C 494.53125 162.8125 483.125031 203.4375 483.125031 248.4375 C 483.125031 293.4375 494.53125 334.0625 512.03125 362.34375 C 529.375 390.78125 551.71875 405.937469 574.6875 405.937469 C 597.65625 405.937469 620 390.78125 637.34375 362.34375 C 654.84375 334.0625 666.25 293.4375 666.25 248.4375 C 666.25 203.4375 654.84375 162.8125 637.34375 134.46875 C 620 106.140625 597.65625 90.921875 574.6875 90.921875 Z M 574.53125 300.3125 L 574.84375 300.3125 C 586.09375 300.46875 592.96875 308.59375 596.5625 315.9375 C 600.15625 323.28125 601.875 331.5625 601.875 340.78125 C 601.875 350 600.15625 358.28125 596.5625 365.625 C 592.96875 372.96875 586.09375 381.09375 574.84375 381.25 L 574.53125 381.25 C 563.28125 381.09375 556.40625 372.96875 552.8125 365.625 C 549.21875 358.28125 547.5 350 547.5 340.78125 C 547.5 331.5625 549.21875 323.28125 552.8125 315.9375 C 556.40625 308.59375 563.28125 300.46875 574.53125 300.3125 Z M 297.5 374.53125 C 266.5625 374.53125 235.46875 376.875 204.375 381.5625 C 158.125 422.343719 133.359375 492.8125 133.359375 561.71875 C 133.359375 627.34375 155.296875 688.75 196.40625 720.9375 C 229.375 726.25 262.34375 729.0625 295.15625 729.0625 C 256.09375 688.59375 237.343735 625.46875 237.343735 561.875 C 237.343735 493.437469 258.4375 422.5 303.125 374.53125 Z M 342.8125 376.25 C 292.1875 415.937531 265.3125 489.84375 265.3125 561.875 C 265.3125 632.1875 290.625 697.8125 337.96875 727.8125 C 360.15625 726.25 382.34375 723.59375 404.53125 719.84375 C 390.9375 709.84375 379.0625 696.40625 369.375 680.625 C 348.59375 646.71875 336.40625 601.5625 336.40625 551.875 C 336.40625 502.1875 348.59375 457.03125 369.375 423.28125 C 379.0625 407.499969 390.9375 393.90625 404.374969 384.0625 C 383.75 380.46875 363.28125 377.8125 342.8125 376.25 Z M 157.8125 390.46875 C 152.640625 391.5625 147.65625 392.8125 142.609375 394.0625 L 141.9375 394.0625 L 141.453125 394.21875 C -0.470313 417.8125 -0.470313 686.09375 141.453125 709.6875 L 141.9375 709.84375 L 142.609375 709.84375 L 148.3125 711.25 C 119.234375 671.25 105.3125 616.71875 105.3125 561.71875 C 105.3125 500.625 122.3125 437.34375 157.8125 390.46875 Z M 455.937469 394.375 C 432.96875 394.375 410.78125 409.687531 393.28125 437.968719 C 375.78125 466.25 364.375 506.875 364.375 551.875 C 364.375 597.03125 375.78125 637.5 393.28125 665.9375 C 410.78125 694.21875 432.96875 709.53125 455.937469 709.53125 C 478.90625 709.53125 501.093781 694.21875 518.59375 665.9375 C 536.09375 637.5 547.5 597.03125 547.5 551.875 C 547.5 506.875 536.09375 466.25 518.59375 437.968719 C 501.093781 409.687531 478.90625 394.375 455.937469 394.375 Z M 673.125 394.375 C 659.21875 394.53125 645.46875 400.15625 632.8125 411.09375 C 632.5 411.406219 632.1875 411.71875 631.875 411.875 C 624.21875 418.75 617.03125 427.5 610.625 438.125 C 593.28125 466.40625 581.875 506.875 581.875 551.875 C 581.875 596.875 593.28125 637.5 610.78125 665.78125 C 628.125 694.21875 650.46875 709.375 673.4375 709.375 C 696.40625 709.375 718.75 694.21875 736.09375 665.78125 C 753.59375 637.5 765 596.875 765 551.875 C 765 506.875 753.59375 466.25 736.09375 437.968719 C 718.75 409.53125 696.40625 394.375 673.4375 394.375 Z M 455.937469 603.90625 C 467.1875 603.90625 474.21875 612.03125 477.96875 619.375 C 481.562531 626.71875 483.125031 635 483.125031 644.375 C 483.125031 653.59375 481.562531 662.03125 477.96875 669.21875 C 474.21875 676.71875 467.1875 684.6875 455.937469 684.6875 C 444.6875 684.6875 437.65625 676.71875 434.062469 669.21875 C 430.3125 662.03125 428.75 653.59375 428.75 644.375 C 428.75 635 430.3125 626.71875 434.062469 619.375 C 437.65625 612.03125 444.6875 603.90625 455.937469 603.90625 Z M 673.28125 603.90625 L 673.59375 603.90625 C 684.84375 604.0625 691.71875 612.1875 695.3125 619.53125 C 698.90625 626.875 700.625 635.15625 700.625 644.375 C 700.625 653.59375 698.90625 661.875 695.3125 669.21875 C 691.71875 676.5625 684.84375 684.6875 673.59375 684.84375 L 673.28125 684.84375 C 662.03125 684.6875 655.15625 676.5625 651.5625 669.21875 C 647.96875 661.875 646.25 653.59375 646.25 644.375 C 646.25 635.15625 647.96875 626.875 651.5625 619.53125 C 655.15625 612.1875 662.03125 604.0625 673.28125 603.90625 Z M 564.6875 630.15625 C 559.21875 648.75 551.71875 665.78125 542.65625 680.625 C 529.375 701.875 512.34375 719.0625 492.8125 728.75 C 535.78125 730.15625 578.90625 727.34375 621.875 719.84375 C 608.4375 710 596.40625 696.40625 586.71875 680.625 C 577.65625 665.78125 570.15625 648.75 564.6875 630.15625 Z"/>
</svg>
