<svg xmlns="http://www.w3.org/2000/svg" viewBox="0 0 602.86 602.86"><defs><style>.cls-1{fill:none;stroke:#fcfcfa;stroke-linecap:round;stroke-linejoin:round;stroke-width:66.67px;}</style></defs><g id="Calque_2" data-name="Calque 2"><g id="Calque_1-2" data-name="Calque 1"><path class="cls-1" d="M300,36.19H100a66.67,66.67,0,0,0-66.67,66.67v400A66.67,66.67,0,0,0,100,569.53H500a66.67,66.67,0,0,0,66.67-66.67v-200M513.81,183.33,550,147.14a66.67,66.67,0,0,0-94.28-94.28L419.53,89.05m94.28,94.28L312.6,384.54a66.66,66.66,0,0,1-34.07,18.24l-98.06,19.61,19.62-98.06a66.64,66.64,0,0,1,18.23-34.07L419.53,89.05m94.28,94.28L419.53,89.05"/></g></g></svg>