<svg xmlns="http://www.w3.org/2000/svg" viewBox="0 0 468.57 580.66"><defs><style>.e29678bf-b534-4c46-90de-9a3301d195a1{fill:#800330;}</style></defs><g id="b0b82dc3-8436-4580-9609-1a50a66b7754" data-name="Calque 2"><g id="b5159028-c102-4b14-a5be-121bca492613" data-name="Calque 1"><path class="e29678bf-b534-4c46-90de-9a3301d195a1" d="M194.57,555.12c-.19,3.15-.76,4.52.61,11.63.83,4.38,4.07,7.54-.56,6.33-4-1-9.19-2.61-13.17-3.55-17.51-4.58-36.14-6.13-52.31-14.76-5.24-2.73-7.53-8.21-10.07-13.26-3.36-7,.6-27.92.35-35.49-.29,0-9.74,15.53-11.49,28.34a61,61,0,0,0-.26,14.47c.2,2.37,1.13,4.07-3.91,2.3-3.8-1.34-17.26-8.07-20.48-9.45-8.78-3.77-11.6-11.1-10.87-19.77.54-6.26,2.66-12.42,4.42-18.53.81-2.8,7.31-15.75,6.84-17.44-8.82,11.78-23.07,27.38-34.81,36.17-2.54,1.89-5.38,2.16-7.79.54C34.4,518.13,1.89,482.8.43,478.48c-1-2.92-.28-5.27,2.32-6.14,106.71-35.65,162.29-161.48,167.07-176,.82-2.49,1.3-3.81,4.41-3.63,4.34.93,76.94,24.49,80.14,25.9a2.67,2.67,0,0,1,1.37,2.22c-16,73.68-.32,229.09,33.19,241,3.09,1.1.34,4.51-1.69,6.23-14.2,12.38-34.85,15.27-52.67,10.15-4.81-1.44-8.42-4.57-12-7.87-4.2-3.83-6.84-8.51-9-13.62a97.32,97.32,0,0,1-7.73-38.2c0-4.21-.37-8.43-.56-12.64C204.93,505.9,195.58,538.41,194.57,555.12Z"/><path class="e29678bf-b534-4c46-90de-9a3301d195a1" d="M308.21,0c11.61.28,20,9.18,15.55,21.44-2.42,7.83-4.26,15.9-7.37,23.45-5.52,13.41-8.88,27.44-13.17,41.21-13.57,39.89-26.07,80.11-39.75,120-2.45,7.24-4.8,14.51-7.38,21.71-.9,2.52.49,3.94,2,5.2,16.51,13.82,15.41,31.88,10.24,49.06-2,6.73-4.08,13.44-6.06,20.18a3.87,3.87,0,0,1-4.79,2.5c-27.17-8.72-51.17-16-78.34-24.66-3.15-.87-2.83-3-2.1-5.26,2-6.25,4-12.52,6.23-18.7,6.16-17.17,17.19-29.23,35.53-33.51,2.57-.6,5.16-.44,6.15-4.26,19.59-64.52,41.92-128.22,62.34-192.49,2.16-6.63,4.63-13.15,7-19.69C295.77,2.26,300.74-.19,308.21,0Z"/><circle class="e29678bf-b534-4c46-90de-9a3301d195a1" cx="322.66" cy="509.36" r="9.22"/><circle class="e29678bf-b534-4c46-90de-9a3301d195a1" cx="372.41" cy="509.36" r="18.83"/><circle class="e29678bf-b534-4c46-90de-9a3301d195a1" cx="347.84" cy="549.94" r="14.48"/><circle class="e29678bf-b534-4c46-90de-9a3301d195a1" cx="414.71" cy="549.94" r="14.16"/><circle class="e29678bf-b534-4c46-90de-9a3301d195a1" cx="459.39" cy="537.37" r="9.18"/></g></g></svg>