<svg xmlns="http://www.w3.org/2000/svg" viewBox="0 0 329.17 367.92"><defs><style>.cls-1{fill:#800330;}</style></defs><g id="Calque_2" data-name="Calque 2"><g id="Calque_1-2" data-name="Calque 1"><path class="cls-1" d="M152.41,367.92c-7.09-1-14.22-1.68-21.26-2.94-40.45-7.21-74.9-25.71-103.51-55.21a197.82,197.82,0,0,1-25.75-33c-2.06-3.3-2.57-6.63-.87-10.19,16.48-34.42,43.06-56.64,80.06-66.2a92.26,92.26,0,0,1,13.38-2.43c5.08-.53,9.11,2.29,13.08,5a98.38,98.38,0,0,0,54.1,17.57c20.33.62,39.76-3.78,56.45-15.44,9.81-6.86,19.1-7.8,30-4.89q55.29,14.81,80.17,66.21c1.48,3.06,1.17,5.84-.64,8.79-18.64,30.34-43.4,54.28-74.87,71a181,181,0,0,1-66,20.34c-3.55.38-7.08.95-10.63,1.43Z"/><path class="cls-1" d="M164.82,0c52.63.08,95.54,43.22,95.37,95.87-.17,52.43-43.29,95.34-95.7,95.24s-95.61-43.4-95.41-95.93S112.33-.08,164.82,0Z"/></g></g></svg>