<svg xmlns="http://www.w3.org/2000/svg" viewBox="0 0 211.95 119.16"><defs><style>.aca186aa-aec7-4800-8e88-f383a0924a26{fill:#540220;}</style></defs><g id="b56ea488-0bdd-4880-b72c-ad7bfd86abd0" data-name="Calque 2"><g id="a4bd7f82-c9e4-4028-8100-34952f8e861f" data-name="Calque 1"><path class="aca186aa-aec7-4800-8e88-f383a0924a26" d="M110,0c20.57.65,41.55,2.91,61.27,9.47,11.7,4,23.5,9.11,32.26,18.08,12.87,13.09,10.39,29.79-3.48,41-11.6,9.51-26.13,14.46-40.49,18.12-4.31,1.08-8.67,2-13,2.84-.81.15-.87.11-.87-.72,0-4,0-8,0-12a.78.78,0,0,1,.75-.91c15.9-3.33,40.83-9.46,50.34-23.48,6.3-9.64-4.73-18.52-12.47-22.81C166.9,20,146.93,16.32,127.35,14.38,98.9,12.07,69.61,13.75,42.44,23,32.55,26.74,22,31.18,15.58,40c-6.9,9.75,4.34,18.91,12.27,23.29C42,71.22,58,74.75,73.92,77.09c5.94.84,11.91,1.4,17.9,1.78.85,0,.89,0,.89-.88.06-8.38-.12-16.54.07-24.95,10.93,10.71,21.64,21.61,32.49,32.4.79.79.75.63,0,1.36-10.83,10.77-21.54,21.66-32.44,32.36-.39-8.63,0-17.28-.14-25.92,0-1,0-1-1-1a240.2,240.2,0,0,1-24.53-2.58C44.26,85.94,3,75.1,0,47.76V45.12c1.23-13.47,12.82-23,24.23-28.81C48.26,4.24,75.74.89,102.2,0Z"/></g></g></svg>