<svg xmlns="http://www.w3.org/2000/svg" viewBox="0 0 599.43 466.67"><defs><style>.cls-1{fill:#800330;fill-rule:evenodd;}</style></defs><g id="Calque_2" data-name="Calque 2"><g id="Calque_1-2" data-name="Calque 1"><g id="Calque_2-2" data-name="Calque 2"><g id="Calque_1-2-2" data-name="Calque 1-2"><path class="cls-1" d="M0,33.33A33.33,33.33,0,0,1,33.33,0H566.67a33.34,33.34,0,0,1,0,66.67H33.33A33.34,33.34,0,0,1,0,33.33Zm0,200A33.33,33.33,0,0,1,33.33,200H566.67a33.34,33.34,0,0,1,0,66.67H33.33A33.34,33.34,0,0,1,0,233.33Zm0,200A33.33,33.33,0,0,1,33.33,400H566.67a33.34,33.34,0,0,1,0,66.67H33.33A33.34,33.34,0,0,1,0,433.33Z"/></g></g></g></g></svg>