<svg xmlns="http://www.w3.org/2000/svg" viewBox="0 0 666.67 666.67"><defs><style>.cls-1{fill:#fcfcfa;fill-rule:evenodd;}</style></defs><g id="Calque_2" data-name="Calque 2"><g id="Calque_1-2" data-name="Calque 1"><path class="cls-1" d="M0,333.33C0,149.24,149.24,0,333.33,0S666.67,149.24,666.67,333.33,517.43,666.67,333.33,666.67,0,517.43,0,333.33Zm333.33-200A133.34,133.34,0,1,0,466.66,266.67,133.33,133.33,0,0,0,333.33,133.33ZM503.72,466.58c25.26,16.27,24,51.72,1,71.05a266.7,266.7,0,0,1-341.89.76c-23.21-19.31-24.44-54.95.93-71.32a158.85,158.85,0,0,1,25.84-13.41c37.55-15.49,85.52-20.33,143.71-20.33,58.49,0,106.73,4.53,144.38,19.85A157.85,157.85,0,0,1,503.72,466.58Z"/></g></g></svg>