<svg xmlns="http://www.w3.org/2000/svg" viewBox="0 0 205.49 44.66"><defs><style>.cls-1{fill:#1d1d1b;}</style></defs><g id="Calque_2" data-name="Calque 2"><g id="Calque_1-2" data-name="Calque 1"><path class="cls-1" d="M130.91,9.83q1.56,0,4.1,2.12a2.27,2.27,0,0,1,.75,1.63q0,1.41-3.15,8.56-3.39,8-5.23,13.5a25,25,0,0,0-.68,2.62c0,.26.11.39.32.39q1.64-.46,6.83-6.83,6.93-8.68,9.09-13.22c.61-1,1.13-1.59,1.55-1.66h0c.28,0,.42.25.42.74q0,2.09-5.44,11.46-9.42,15.4-13.8,15.41a5.31,5.31,0,0,1-4.95-3.11,6.77,6.77,0,0,1-.7-3q0-1.95,2.54-8.95,3.75-11.49,6.51-17.82A5.32,5.32,0,0,1,130.17,10,1.22,1.22,0,0,1,130.91,9.83ZM135.23,0c1,0,2.35.72,4.1,2.16A2.33,2.33,0,0,1,140,3.71v.07a10.83,10.83,0,0,1-1.14,3.79,1.59,1.59,0,0,1-1.3.81A11.49,11.49,0,0,1,134.1,7c-1.16-.83-1.74-1.6-1.74-2.3a28,28,0,0,1,1.56-3.61c.28-.71.71-1.06,1.27-1.06Z"/><path class="cls-1" d="M160.9,9.72q1.44,0,4.1,2a2.58,2.58,0,0,1,1,1.81v.14q0,1.28-2.16,6.22-4,9.3-6,15.28a24.59,24.59,0,0,0-.88,3.15c.07.23.14.35.21.35h.11q1.34-.07,7.49-7.6Q171.16,22.85,173,19c.7-1.35,1.29-2,1.76-2,.26.07.39.29.39.64v.14q0,2.45-7,13.9-8.24,12.9-12.17,12.9h-.53a5.64,5.64,0,0,1-4.59-2.47,5.52,5.52,0,0,1-1-3.15,11.59,11.59,0,0,1,1-3.53Q155.7,22.1,156,21.11a3.79,3.79,0,0,0,.11-.81c0-.24-.08-.38-.25-.43-.68,0-2.43,1.77-5.23,5.31a92,92,0,0,0-7.67,11.67,20.19,20.19,0,0,0-2,4.45,5.75,5.75,0,0,0-.35,2.16v1.09c0,.05,0,.07-.11.07-2.64,0-4.47-1.37-5.48-4.13a9.75,9.75,0,0,1-.25-2q0-1.9,2.23-8.13,4.2-12.84,6.93-18.92c.52-1,1-1.55,1.38-1.55a1,1,0,0,1,.32,0q1.54,0,4.1,2.16a2.41,2.41,0,0,1,.71,1.62q0,1.38-3.26,8.88Q155.92,9.72,160.9,9.72Z"/><path class="cls-1" d="M184.84,8.91a8.9,8.9,0,0,1,7.88,4.35c.71,1.06,1,2.78.89,5.16a41.92,41.92,0,0,1-3.36,13.33,6.94,6.94,0,0,0,2.58-.85,10.8,10.8,0,0,0,2.69-2,45.58,45.58,0,0,0,4.63-5.8,49.45,49.45,0,0,0,3.5-5.41c.61-.85,1.08-1.27,1.41-1.27s.43.3.43.7q-.11,1.74-3.93,8.84a41,41,0,0,1-5.66,7.78q-4.28,4.32-8,4.32H187c-.76,1.08-1.59,2.15-2.51,3.22A10,10,0,0,1,177,44.66a9.37,9.37,0,0,1-7.56-3.36,12.19,12.19,0,0,1-2.06-7.88q.25-5.42,4-13.34Q177.16,8.92,184.84,8.91ZM175.33,35.5c-.1,2.19.25,3.62,1.06,4.28l.31,0c1.47,0,3.07-1.48,4.81-4.42a16,16,0,0,1-2.22-2.66,21.39,21.39,0,0,1-2.2-4.24,2.92,2.92,0,0,1-.21-.64,10.12,10.12,0,0,0-.64,2.2A33,33,0,0,0,175.33,35.5Zm5.12-15.45A13.38,13.38,0,0,0,182.5,27a15.25,15.25,0,0,0,1.91,2.33A44.72,44.72,0,0,0,187.35,17c.09-2-.21-3.27-.92-3.75a1.29,1.29,0,0,0-.57-.1q-2.09.57-4.59,4.63A3.93,3.93,0,0,0,180.45,20.05Z"/><path class="cls-1" d="M126.82,2.94a7.83,7.83,0,0,0-6-2.63h-.06c-.14,0-.23,0-.25.09v.79a40.35,40.35,0,0,1-2,12.07,95.7,95.7,0,0,1-4.13,10.38q-4.87,9.95-6.31,13.1h0a35.54,35.54,0,0,1-.43-5.54,79.13,79.13,0,0,1,1-11q2.05-12.23,2-15V5a4.07,4.07,0,0,0,0-.5,3,3,0,0,0-.29-1.26,3.56,3.56,0,0,0-.85-1,5.24,5.24,0,0,0-1.28-.73A13.72,13.72,0,0,0,106.77,1a14.15,14.15,0,0,0-1.71-.4,21.49,21.49,0,0,0-3.2-.28c-.53,0-1,0-1.57,0C99.45.3,98.6.29,97.81.28,90.25.15,82.69.19,75.14,0,67.35-.17,60.7,2.17,55.21,7.87a18,18,0,0,1-12,5.77c-4,.26-8.07.23-12.11.2-6.43-.05-12.86.06-19.26-.4-3.34-.23-6.55-.54-9.84.37-1.4.39-2.06,1-2,2.4,0,3.86.07,7.73.05,11.6,0,1.38.57,2,2,2.2a52,52,0,0,0,12.16.41c8.55-.41,17.14,0,25.7-.16a20.23,20.23,0,0,1,15.29,6.05c6,6,13.35,8.19,21.62,7.91,5.43-.19,9.31-2.61,11.55-7.73s4.74-10.11,7.15-15.14c.9-1.88,1.65-3.84,2.44-5.77,1-2.49,1.8-5.38,3.66-7.37.19-.2.37-.41.55-.63,2.26-2.38,2.41-.72,2.28.58,0,.15-.06.3-.08.44s-.07.46-.1.69h0q-3.15,21.62-3.15,27c0,.31,0,.6,0,.89a4.61,4.61,0,0,0,1.26,3.15,11.34,11.34,0,0,0,2.85,2.24,14.34,14.34,0,0,0,4.22,1.54c1,.12,1.57.17,1.84.17a1.25,1.25,0,0,0,.67-.21,11.8,11.8,0,0,0,1.5-2.33,264.1,264.1,0,0,0,10.75-24.86Q127.93,7,127.92,5.69V5.6A4.21,4.21,0,0,0,126.82,2.94Z"/></g></g></svg>