<svg xmlns="http://www.w3.org/2000/svg" viewBox="0 0 329.03 413.86"><defs><style>.a3b4fd78-9f10-4da8-b3bd-e85e4b2cc598{fill:#fff;}</style></defs><g id="af553eec-c52f-480f-a140-79de5c0647f9" data-name="Calque 2"><g id="b9909cd7-bcc2-4d96-83e4-a8992479fc3f" data-name="Calque 1"><path d="M164.85,217.88H311.33c13.86,0,19.85,7.35,17,21.2-4.91,24-9.95,47.88-14.93,71.82q-7.32,35.19-14.65,70.36c-2.34,11.27-7.06,15.07-18.63,15.07q-117.23,0-234.47,0c-8.76,0-12.07-2.57-13.86-11Q16.23,311.82.71,238.33c-2.84-13.5,2.85-20.43,16.66-20.44Q91.11,217.86,164.85,217.88Zm-.8,101.25a11.21,11.21,0,0,0,11.58-11.21c.12-6.86-4.66-11.8-11.42-11.79s-11.39,4.52-11.55,11.13A11.17,11.17,0,0,0,164.05,319.13Z"/><path d="M174.24,0c12.27,0,22.39,1.06,27.07,11.26,3.07,6.7,7.56,11.28,12.73,16.13,9.13,8.57,11.19,20.11,10.14,32.18-.5,5.79-1.75,11.51-2.31,17.3-.13,1.4.74,3.68,1.84,4.28,6.39,3.47,8.83,9.17,8.53,15.8a16.2,16.2,0,0,1-10.41,14.7c-3.31,1.39-4.62,3.3-5.55,6.68-5.48,19.94-16.14,35.71-36.59,42.93-20,7-37.41,2.39-51.49-13.41-8.16-9.16-13-20-16.55-31.57a9.87,9.87,0,0,0-4.29-5.28C96,104.92,94.22,92.77,103.42,84c1.14-1.09,1.62-3.8,1.19-5.44-2.93-11.24-4.27-22.52-2.47-34.09,2.31-14.86,10.61-25.56,23.9-31.74C142,5.28,158.81.76,174.24,0Zm39.37,83.32c-1.42-7.62-2.46-14.86-4.17-21.94-2.08-8.59-4.74-17-11.49-23.42-3.81-3.59-8-4.73-12.73-2-18.81,10.71-39.13,15.52-60.67,16-1.91,0-4.92,2-5.46,3.64-2.31,7.23-4,14.67-5.65,22.1-.56,2.59-.88,4.44-4,5.33-6,1.71-8.55,5.6-8.69,11.82s2.56,10.75,8.59,12.51c3.41,1,4.62,2.83,5.49,6,2.88,10.49,7,20.4,14,29,17.47,21.7,41.48,20.61,60.36,8.81,13.76-8.61,20.57-22.3,23.84-37.81.63-3,1.69-4.36,4.8-5.15,9-2.27,12.6-10.62,9-19.07C224.21,82.93,219.13,82.64,213.61,83.32Z"/><path d="M164.14,403.15H303.66c1.34,0,2.67,0,4,0,3.46.12,5.89,1.71,6,5.31.14,3.82-2.44,5.19-5.89,5.21q-11.76.07-23.5.06H25.76c-2,0-4.3.46-5.92-.36s-4.11-3.1-4-4.6c.11-1.89,2.14-4,3.9-5.34,1.11-.81,3.23-.28,4.89-.28Z"/><path d="M224.53,162.92c22.68,9.63,40.84,23,49.45,47.15H195.33Z"/><path d="M133.52,210.16h-78c.78-2.25,1.3-4.25,2.15-6.1,8.82-19.36,24-31.91,43.25-39.91,1-.44,3.41.11,4,1C114.38,179.77,123.65,194.53,133.52,210.16Z"/><path d="M158.51,210.54c-2-4-3.29-7.09-5.1-9.83-3.57-5.45-2.66-13.42,2.33-17.72a12.72,12.72,0,0,1,16.87.3,13.2,13.2,0,0,1,2,17.22c-1.81,2.72-2.9,5.92-4.86,10Z"/><path class="a3b4fd78-9f10-4da8-b3bd-e85e4b2cc598" d="M164.05,319.13a11.17,11.17,0,0,1-11.39-11.87c.16-6.61,4.84-11.13,11.55-11.13s11.54,4.93,11.42,11.79A11.21,11.21,0,0,1,164.05,319.13Z"/><path class="a3b4fd78-9f10-4da8-b3bd-e85e4b2cc598" d="M213.61,83.32c5.52-.68,10.6-.39,13.24,5.85,3.58,8.45,0,16.8-9,19.07-3.11.79-4.17,2.19-4.8,5.15-3.27,15.51-10.08,29.2-23.84,37.81-18.88,11.8-42.89,12.89-60.36-8.81-6.94-8.61-11.11-18.52-14-29-.87-3.19-2.08-5-5.49-6-6-1.76-8.73-6.2-8.59-12.51s2.7-10.11,8.69-11.82c3.11-.89,3.43-2.74,4-5.33,1.6-7.43,3.34-14.87,5.65-22.1.54-1.67,3.55-3.59,5.46-3.64,21.54-.52,41.86-5.33,60.67-16,4.73-2.69,8.92-1.55,12.73,2,6.75,6.38,9.41,14.83,11.49,23.42C211.15,68.46,212.19,75.7,213.61,83.32Z"/></g></g></svg>